<svg width="1390" height="945" viewBox="0 0 1390 945" fill="none" xmlns="http://www.w3.org/2000/svg">
<rect x="53" y="328" width="1284" height="5" fill="url(#paint0_linear_167_877)"/>
<path d="M53 341.571C53 356.168 41.1355 368 26.5 368C11.8645 368 0 356.168 0 341.571C0 326.975 26.5 288 26.5 288C26.5 288 53 326.975 53 341.571Z" fill="#6EF5E8"/>
<rect x="133" y="256" width="60" height="144" rx="30" fill="#6EF5E8"/>
<rect x="209" y="200" width="60" height="256" rx="30" fill="#6EF5E8"/>
<rect x="285" y="116" width="60" height="424" rx="30" fill="#6EF5E8"/>
<rect x="361" y="200" width="60" height="256" rx="30" fill="#6EF5E8"/>
<rect x="437" y="236" width="60" height="184" rx="30" fill="#6EF5E8"/>
<rect x="513" y="144" width="60" height="368" rx="30" fill="#382E84"/>
<rect x="589" y="86" width="60" height="484" rx="30" fill="#382E84"/>
<rect x="665" width="60" height="656" rx="30" fill="#7C62FF"/>
<rect x="741" y="96" width="60" height="464" rx="30" fill="#7C62FF"/>
<rect x="817" y="176" width="60" height="304" rx="30" fill="#7C62FF"/>
<rect x="893" y="256" width="60" height="144" rx="30" fill="#C73DFF"/>
<rect x="969" y="200" width="60" height="256" rx="30" fill="#C73DFF"/>
<rect x="1045" y="116" width="60" height="424" rx="30" fill="#C73DFF"/>
<rect x="1121" y="200" width="60" height="256" rx="30" fill="#C73DFF"/>
<rect x="1197" y="236" width="60" height="184" rx="30" fill="#C73DFF"/>
<path d="M209 328H269V426C269 442.569 255.569 456 239 456V456C222.431 456 209 442.569 209 426V328Z" fill="#5FDFD3"/>
<path d="M133 328H193V390C193 406.569 179.569 420 163 420V420C146.431 420 133 406.569 133 390V328Z" fill="#5FDFD3"/>
<path d="M285 328H345V510C345 526.569 331.569 540 315 540V540C298.431 540 285 526.569 285 510V328Z" fill="#5FDFD3"/>
<path d="M361 328H421V426C421 442.569 407.569 456 391 456V456C374.431 456 361 442.569 361 426V328Z" fill="#5FDFD3"/>
<path d="M437 328H497V390C497 406.569 483.569 420 467 420V420C450.431 420 437 406.569 437 390V328Z" fill="#5FDFD3"/>
<path d="M513 328H573V482C573 498.569 559.569 512 543 512V512C526.431 512 513 498.569 513 482V328Z" fill="#2A2264"/>
<path d="M589 328H649V540C649 556.569 635.569 570 619 570V570C602.431 570 589 556.569 589 540V328Z" fill="#2A2264"/>
<path d="M665 328H725V626C725 642.569 711.569 656 695 656V656C678.431 656 665 642.569 665 626V328Z" fill="#2A2264"/>
<path d="M741 328H801V530C801 546.569 787.569 560 771 560V560C754.431 560 741 546.569 741 530V328Z" fill="#6A53E0"/>
<path d="M817 328H877V450C877 466.569 863.569 480 847 480V480C830.431 480 817 466.569 817 450V328Z" fill="#6A53E0"/>
<path d="M893 328H953V370C953 386.569 939.569 400 923 400V400C906.431 400 893 386.569 893 370V328Z" fill="#AF36E0"/>
<path d="M969 328H1029V426C1029 442.569 1015.57 456 999 456V456C982.431 456 969 442.569 969 426V328Z" fill="#AF36E0"/>
<path d="M1045 328H1105V510C1105 526.569 1091.57 540 1075 540V540C1058.43 540 1045 526.569 1045 510V328Z" fill="#AF36E0"/>
<path d="M1121 328H1181V426C1181 442.569 1167.57 456 1151 456V456C1134.43 456 1121 442.569 1121 426V328Z" fill="#AF36E0"/>
<path d="M1197 328H1257V390C1257 406.569 1243.57 420 1227 420V420C1210.43 420 1197 406.569 1197 390V328Z" fill="#AF36E0"/>
<path d="M1390 341.571C1390 356.168 1378.14 368 1363.5 368C1348.86 368 1337 356.168 1337 341.571C1337 326.975 1363.5 288 1363.5 288C1363.5 288 1390 326.975 1390 341.571Z" fill="#2A2264"/>
<path d="M138.672 817.032C139.131 814.739 139.36 812.388 139.36 809.98C139.36 798.857 133.913 793.296 123.02 793.296C118.089 793.296 113.904 794.328 110.464 796.392C107.253 800.176 105.648 804.705 105.648 809.98C105.648 813.42 107.139 816.401 110.12 818.924C113.101 821.332 116.771 823.224 121.128 824.6C125.6 825.976 130.416 827.696 135.576 829.76C140.736 831.824 145.495 834.06 149.852 836.468C154.324 838.761 158.051 842.259 161.032 846.96C164.013 851.547 165.504 856.993 165.504 863.3C165.504 875.34 160.86 885.144 151.572 892.712C142.399 900.28 131.333 904.064 118.376 904.064C107.941 904.064 99.0547 901.484 91.716 896.324C84.492 891.049 80.88 883.711 80.88 874.308C80.88 869.492 82.3133 865.479 85.18 862.268C88.1613 858.943 91.6587 857.28 95.672 857.28C99.8 857.28 102.839 857.796 104.788 858.828C103.871 862.268 103.412 865.364 103.412 868.116C103.412 874.308 105.132 879.239 108.572 882.908C112.127 886.463 117 888.24 123.192 888.24C129.384 888.24 134.372 886.635 138.156 883.424C141.94 880.213 143.832 875.971 143.832 870.696C143.832 865.307 141.711 860.892 137.468 857.452C133.34 854.012 128.295 851.26 122.332 849.196C116.369 847.132 110.407 844.953 104.444 842.66C98.4813 840.367 93.3787 836.984 89.136 832.512C85.008 827.925 82.944 822.192 82.944 815.312C82.944 804.533 87.588 795.589 96.876 788.48C106.279 781.371 116.885 777.816 128.696 777.816C137.411 777.816 144.921 779.593 151.228 783.148C157.649 786.588 160.86 791.863 160.86 798.972C160.86 804.132 159.197 808.547 155.872 812.216C152.547 815.771 148.361 817.548 143.316 817.548C141.94 817.548 140.392 817.376 138.672 817.032ZM261.742 839.392C261.742 825.747 258.933 814.739 253.314 806.368C247.81 797.883 239.153 793.64 227.342 793.64C220.233 793.64 213.926 795.933 208.422 800.52C205.326 805.336 202.861 811.815 201.026 819.956C199.306 828.097 198.446 835.837 198.446 843.176C198.446 856.707 201.198 867.543 206.702 875.684C212.206 883.825 220.921 887.896 232.846 887.896C239.382 887.896 244.943 885.259 249.53 879.984C257.671 870.467 261.742 856.936 261.742 839.392ZM226.998 904.064C210.257 904.064 197.529 898.56 188.814 887.552C180.099 876.429 175.742 861.924 175.742 844.036C175.742 826.033 181.131 810.496 191.91 797.424C202.689 784.352 216.391 777.816 233.018 777.816C249.759 777.816 262.487 783.435 271.202 794.672C280.031 805.909 284.446 820.529 284.446 838.532C284.446 856.535 279.057 871.957 268.278 884.8C257.499 897.643 243.739 904.064 226.998 904.064ZM326.652 793.812C326.652 802.412 325.792 813.764 324.072 827.868C322.467 841.972 321.664 852.865 321.664 860.548C321.664 868.231 323.728 874.652 327.856 879.812C331.984 884.857 338.119 887.38 346.26 887.38C349.585 887.38 353.599 886.577 358.3 884.972C363.001 883.367 366.728 881.303 369.48 878.78C370.971 866.052 371.716 849.712 371.716 829.76C371.716 809.693 370.283 793.411 367.416 780.912C371.085 779.536 374.984 778.848 379.112 778.848C383.24 778.848 386.795 780.167 389.776 782.804C392.872 785.441 394.42 788.881 394.42 793.124C394.42 797.367 393.904 804.648 392.872 814.968C391.955 825.288 391.496 836.869 391.496 849.712C391.496 862.44 392.069 873.677 393.216 883.424C376.475 897.184 359.504 904.064 342.304 904.064C329.232 904.064 319.027 900.739 311.688 894.088C304.464 887.323 300.852 877.576 300.852 864.848C300.852 860.835 301.196 853.611 301.884 843.176C302.687 832.627 303.088 824.944 303.088 820.128C303.088 802.813 301.941 790.085 299.648 781.944C303.317 780.568 307.216 779.88 311.344 779.88C315.472 779.88 319.027 781.199 322.008 783.836C325.104 786.473 326.652 789.799 326.652 793.812ZM485.419 781.6C489.088 779.765 492.929 778.848 496.943 778.848C501.071 778.848 504.396 780.109 506.919 782.632C509.556 785.155 510.875 788.193 510.875 791.748C510.875 795.303 510.359 803.157 509.327 815.312C508.295 827.352 507.779 836.927 507.779 844.036C507.779 866.855 508.811 885.832 510.875 900.968C507.205 902.344 503.077 903.032 498.491 903.032C494.019 903.032 490.521 902.287 487.999 900.796C480.66 896.553 463.517 869.721 436.571 820.3C436.112 824.772 435.883 835.264 435.883 851.776C435.883 868.173 437.144 884.227 439.667 899.936C436.112 901.312 432.271 902 428.143 902C424.015 902 420.632 900.681 417.995 898.044C415.472 895.407 414.211 892.253 414.211 888.584C414.211 884.915 414.727 877.232 415.759 865.536C416.905 853.84 417.479 845.011 417.479 839.048C417.479 816.229 416.389 797.309 414.211 782.288C417.421 780.683 422.123 779.88 428.315 779.88C434.507 779.88 438.864 782.345 441.387 787.276C458.357 821.791 474.583 851.031 490.063 874.996C489.719 852.98 489.547 841.341 489.547 840.08C489.547 818.637 488.171 799.144 485.419 781.6ZM528.765 894.26C532.32 877.175 534.097 859.459 534.097 841.112C534.097 822.765 532.664 804.189 529.797 785.384C545.392 781.027 559.209 778.848 571.249 778.848C589.137 778.848 602.725 783.549 612.013 792.952C621.416 802.24 626.117 816.401 626.117 835.436C626.117 854.471 620.785 870.524 610.121 883.596C599.572 896.553 584.895 903.032 566.089 903.032C553.247 903.032 540.805 900.108 528.765 894.26ZM555.425 796.22C554.393 810.209 553.877 823.797 553.877 836.984C553.877 850.056 554.508 865.88 555.769 884.456C560.471 886.061 565.745 886.864 571.593 886.864C577.441 886.864 582.487 885.545 586.729 882.908C591.087 880.156 594.412 876.429 596.705 871.728C601.177 862.784 603.413 851.833 603.413 838.876C603.413 826.377 601.005 816.057 596.189 807.916C590.915 798.743 582.716 794.156 571.593 794.156C565.516 794.156 560.127 794.844 555.425 796.22ZM771.023 839.392C771.023 825.747 768.214 814.739 762.595 806.368C757.091 797.883 748.434 793.64 736.623 793.64C729.514 793.64 723.207 795.933 717.703 800.52C714.607 805.336 712.142 811.815 710.307 819.956C708.587 828.097 707.727 835.837 707.727 843.176C707.727 856.707 710.479 867.543 715.983 875.684C721.487 883.825 730.202 887.896 742.127 887.896C748.663 887.896 754.225 885.259 758.811 879.984C766.953 870.467 771.023 856.936 771.023 839.392ZM736.279 904.064C719.538 904.064 706.81 898.56 698.095 887.552C689.381 876.429 685.023 861.924 685.023 844.036C685.023 826.033 690.413 810.496 701.191 797.424C711.97 784.352 725.673 777.816 742.299 777.816C759.041 777.816 771.769 783.435 780.483 794.672C789.313 805.909 793.727 820.529 793.727 838.532C793.727 856.535 788.338 871.957 777.559 884.8C766.781 897.643 753.021 904.064 736.279 904.064ZM832.837 846.96C832.837 869.091 834.041 886.749 836.449 899.936C832.78 901.312 828.881 902 824.753 902C820.625 902 817.013 900.681 813.917 898.044C810.936 895.407 809.445 891.795 809.445 887.208C809.445 882.507 810.018 873.677 811.165 860.72C812.312 847.763 812.885 837.729 812.885 830.62C812.885 813.076 811.681 796.163 809.273 779.88C817.758 780.568 829.168 780.912 843.501 780.912C857.834 780.912 871.537 779.88 884.609 777.816C885.985 780.339 886.673 783.377 886.673 786.932C886.673 790.372 885.297 793.468 882.545 796.22C879.908 798.857 876.582 800.176 872.569 800.176C868.67 800.176 862.364 799.603 853.649 798.456C845.049 797.309 838.685 796.736 834.557 796.736C833.64 809.235 833.066 820.701 832.837 831.136C839.488 831.824 846.826 832.168 854.853 832.168C862.994 832.168 870.046 830.964 876.009 828.556C877.385 831.079 878.073 834.117 878.073 837.672C878.073 841.112 876.697 844.265 873.945 847.132C871.308 849.884 868.154 851.26 864.485 851.26C860.816 851.26 855.541 850.572 848.661 849.196C841.781 847.705 836.506 846.96 832.837 846.96ZM1002.71 843.52C1007.87 854.413 1014.4 863.931 1022.32 872.072C1030.23 880.213 1038.08 885.488 1045.88 887.896C1045.88 892.712 1044.62 896.439 1042.1 899.076C1039.57 901.713 1035.96 903.032 1031.26 903.032C1025.18 903.032 1018.24 899.133 1010.45 891.336C1002.65 883.424 995.827 874.136 989.979 863.472C984.246 852.693 980.863 843.233 979.831 835.092C988.087 835.092 994.853 832.913 1000.13 828.556C1005.52 824.084 1008.21 817.777 1008.21 809.636C1008.21 799.316 1001.79 794.156 988.947 794.156C984.819 794.156 979.774 794.844 973.811 796.22C973.009 811.7 972.607 824.199 972.607 833.716C972.607 864.217 973.811 886.291 976.219 899.936C972.55 901.312 968.651 902 964.523 902C960.395 902 956.783 900.681 953.687 898.044C950.706 895.407 949.215 891.909 949.215 887.552C949.215 883.195 949.789 875.627 950.935 864.848C952.082 853.955 952.655 845.24 952.655 838.704C952.655 818.637 951.222 800.807 948.355 785.212C963.835 780.969 978.57 778.848 992.559 778.848C1018.13 778.848 1030.92 787.964 1030.92 806.196C1030.92 814.223 1028.16 821.791 1022.66 828.9C1017.27 835.895 1010.62 840.768 1002.71 843.52ZM1086.07 781.256C1090.89 779.651 1095.25 778.848 1099.15 778.848C1105.11 778.848 1109.75 780.969 1113.08 785.212C1116.4 789.34 1118.98 795.245 1120.82 802.928C1121.39 805.221 1122.54 810.267 1124.26 818.064C1126.09 825.861 1127.58 832.168 1128.73 836.984C1132.29 852.005 1135.5 863.644 1138.36 871.9C1141.34 880.156 1146.05 886.749 1152.47 891.68C1151.09 895.12 1148.8 897.872 1145.59 899.936C1142.49 902 1139.11 903.032 1135.44 903.032C1127.07 903.032 1120.93 896.725 1117.03 884.112C1115.2 878.264 1113.54 872.531 1112.05 866.912C1108.03 868.288 1103.05 868.976 1097.08 868.976C1091.23 868.976 1084.01 868.345 1075.41 867.084C1071.86 880.959 1070.08 891.393 1070.08 898.388C1070.08 899.879 1070.14 900.968 1070.25 901.656C1068.76 901.885 1066.24 902 1062.68 902C1059.13 902 1055.97 900.911 1053.22 898.732C1050.59 896.439 1049.27 893.228 1049.27 889.1C1049.27 883.367 1054.77 866.568 1065.78 838.704C1076.79 810.84 1083.55 791.691 1086.07 781.256ZM1079.37 852.636C1083.95 853.209 1088.6 853.496 1093.3 853.496C1098.11 853.496 1103.22 852.98 1108.61 851.948C1107.57 847.247 1104.08 829.244 1098.11 797.94C1091.01 816.401 1084.76 834.633 1079.37 852.636ZM1190.86 899.936C1187.19 901.312 1183.3 902 1179.17 902C1175.04 902 1171.43 900.681 1168.33 898.044C1165.35 895.407 1163.86 891.795 1163.86 887.208C1163.86 882.621 1164.43 873.849 1165.58 860.892C1166.73 847.82 1167.3 837.385 1167.3 829.588C1167.3 809.521 1166.1 793.64 1163.69 781.944C1167.36 780.568 1171.26 779.88 1175.38 779.88C1179.51 779.88 1183.07 781.199 1186.05 783.836C1189.14 786.473 1190.69 790.085 1190.69 794.672C1190.69 799.259 1190.12 808.088 1188.97 821.16C1187.82 834.117 1187.25 844.495 1187.25 852.292C1187.25 872.359 1188.46 888.24 1190.86 899.936ZM1282.77 781.6C1286.44 779.765 1290.28 778.848 1294.29 778.848C1298.42 778.848 1301.74 780.109 1304.27 782.632C1306.9 785.155 1308.22 788.193 1308.22 791.748C1308.22 795.303 1307.71 803.157 1306.67 815.312C1305.64 827.352 1305.13 836.927 1305.13 844.036C1305.13 866.855 1306.16 885.832 1308.22 900.968C1304.55 902.344 1300.42 903.032 1295.84 903.032C1291.37 903.032 1287.87 902.287 1285.35 900.796C1278.01 896.553 1260.86 869.721 1233.92 820.3C1233.46 824.772 1233.23 835.264 1233.23 851.776C1233.23 868.173 1234.49 884.227 1237.01 899.936C1233.46 901.312 1229.62 902 1225.49 902C1221.36 902 1217.98 900.681 1215.34 898.044C1212.82 895.407 1211.56 892.253 1211.56 888.584C1211.56 884.915 1212.07 877.232 1213.11 865.536C1214.25 853.84 1214.83 845.011 1214.83 839.048C1214.83 816.229 1213.74 797.309 1211.56 782.288C1214.77 780.683 1219.47 779.88 1225.66 779.88C1231.85 779.88 1236.21 782.345 1238.73 787.276C1255.7 821.791 1271.93 851.031 1287.41 874.996C1287.07 852.98 1286.89 841.341 1286.89 840.08C1286.89 818.637 1285.52 799.144 1282.77 781.6Z" fill="#2A2264"/>
<defs>
<linearGradient id="paint0_linear_167_877" x1="53" y1="328" x2="53.006" y2="334.24" gradientUnits="userSpaceOnUse">
<stop stop-opacity="0.0537"/>
<stop offset="0.416667" stop-opacity="0.0289"/>
<stop offset="0.494792" stop-opacity="0.0289"/>
<stop offset="1" stop-opacity="0.0537"/>
</linearGradient>
</defs>
</svg>
