<svg width="1390" height="935" viewBox="0 0 1390 935" fill="none" xmlns="http://www.w3.org/2000/svg">
<rect x="53" y="328" width="1284" height="5" fill="url(#paint0_linear_167_878)"/>
<path d="M53 341.571C53 356.168 41.1355 368 26.5 368C11.8645 368 0 356.168 0 341.571C0 326.975 26.5 288 26.5 288C26.5 288 53 326.975 53 341.571Z" fill="#6EF5E8"/>
<rect x="133" y="256" width="60" height="144" rx="30" fill="#6EF5E8"/>
<rect x="209" y="200" width="60" height="256" rx="30" fill="#6EF5E8"/>
<rect x="285" y="116" width="60" height="424" rx="30" fill="#6EF5E8"/>
<rect x="361" y="200" width="60" height="256" rx="30" fill="#6EF5E8"/>
<rect x="437" y="236" width="60" height="184" rx="30" fill="#6EF5E8"/>
<rect x="513" y="144" width="60" height="368" rx="30" fill="#F2F2F2"/>
<rect x="589" y="86" width="60" height="484" rx="30" fill="#F2F2F2"/>
<rect x="665" width="60" height="656" rx="30" fill="#7C62FF"/>
<rect x="741" y="96" width="60" height="464" rx="30" fill="#7C62FF"/>
<rect x="817" y="176" width="60" height="304" rx="30" fill="#7C62FF"/>
<rect x="893" y="256" width="60" height="144" rx="30" fill="#C73DFF"/>
<rect x="969" y="200" width="60" height="256" rx="30" fill="#C73DFF"/>
<rect x="1045" y="116" width="60" height="424" rx="30" fill="#C73DFF"/>
<rect x="1121" y="200" width="60" height="256" rx="30" fill="#C73DFF"/>
<rect x="1197" y="236" width="60" height="184" rx="30" fill="#C73DFF"/>
<path d="M209 328H269V426C269 442.569 255.569 456 239 456V456C222.431 456 209 442.569 209 426V328Z" fill="#5FDFD3"/>
<path d="M133 328H193V390C193 406.569 179.569 420 163 420V420C146.431 420 133 406.569 133 390V328Z" fill="#5FDFD3"/>
<path d="M285 328H345V510C345 526.569 331.569 540 315 540V540C298.431 540 285 526.569 285 510V328Z" fill="#5FDFD3"/>
<path d="M361 328H421V426C421 442.569 407.569 456 391 456V456C374.431 456 361 442.569 361 426V328Z" fill="#5FDFD3"/>
<path d="M437 328H497V390C497 406.569 483.569 420 467 420V420C450.431 420 437 406.569 437 390V328Z" fill="#5FDFD3"/>
<path d="M513 328H573V482C573 498.569 559.569 512 543 512V512C526.431 512 513 498.569 513 482V328Z" fill="#D8D5D5"/>
<path d="M589 328H649V540C649 556.569 635.569 570 619 570V570C602.431 570 589 556.569 589 540V328Z" fill="#D8D5D5"/>
<path d="M665 328H725V626C725 642.569 711.569 656 695 656V656C678.431 656 665 642.569 665 626V328Z" fill="#D8D5D5"/>
<path d="M741 328H801V530C801 546.569 787.569 560 771 560V560C754.431 560 741 546.569 741 530V328Z" fill="#6A53E0"/>
<path d="M817 328H877V450C877 466.569 863.569 480 847 480V480C830.431 480 817 466.569 817 450V328Z" fill="#6A53E0"/>
<path d="M893 328H953V370C953 386.569 939.569 400 923 400V400C906.431 400 893 386.569 893 370V328Z" fill="#AF36E0"/>
<path d="M969 328H1029V426C1029 442.569 1015.57 456 999 456V456C982.431 456 969 442.569 969 426V328Z" fill="#AF36E0"/>
<path d="M1045 328H1105V510C1105 526.569 1091.57 540 1075 540V540C1058.43 540 1045 526.569 1045 510V328Z" fill="#AF36E0"/>
<path d="M1121 328H1181V426C1181 442.569 1167.57 456 1151 456V456C1134.43 456 1121 442.569 1121 426V328Z" fill="#AF36E0"/>
<path d="M1197 328H1257V390C1257 406.569 1243.57 420 1227 420V420C1210.43 420 1197 406.569 1197 390V328Z" fill="#AF36E0"/>
<path d="M1390 341.571C1390 356.168 1378.14 368 1363.5 368C1348.86 368 1337 356.168 1337 341.571C1337 326.975 1363.5 288 1363.5 288C1363.5 288 1390 326.975 1390 341.571Z" fill="#F2F2F2"/>
<path d="M138.672 807.032C139.131 804.739 139.36 802.388 139.36 799.98C139.36 788.857 133.913 783.296 123.02 783.296C118.089 783.296 113.904 784.328 110.464 786.392C107.253 790.176 105.648 794.705 105.648 799.98C105.648 803.42 107.139 806.401 110.12 808.924C113.101 811.332 116.771 813.224 121.128 814.6C125.6 815.976 130.416 817.696 135.576 819.76C140.736 821.824 145.495 824.06 149.852 826.468C154.324 828.761 158.051 832.259 161.032 836.96C164.013 841.547 165.504 846.993 165.504 853.3C165.504 865.34 160.86 875.144 151.572 882.712C142.399 890.28 131.333 894.064 118.376 894.064C107.941 894.064 99.0547 891.484 91.716 886.324C84.492 881.049 80.88 873.711 80.88 864.308C80.88 859.492 82.3133 855.479 85.18 852.268C88.1613 848.943 91.6587 847.28 95.672 847.28C99.8 847.28 102.839 847.796 104.788 848.828C103.871 852.268 103.412 855.364 103.412 858.116C103.412 864.308 105.132 869.239 108.572 872.908C112.127 876.463 117 878.24 123.192 878.24C129.384 878.24 134.372 876.635 138.156 873.424C141.94 870.213 143.832 865.971 143.832 860.696C143.832 855.307 141.711 850.892 137.468 847.452C133.34 844.012 128.295 841.26 122.332 839.196C116.369 837.132 110.407 834.953 104.444 832.66C98.4813 830.367 93.3787 826.984 89.136 822.512C85.008 817.925 82.944 812.192 82.944 805.312C82.944 794.533 87.588 785.589 96.876 778.48C106.279 771.371 116.885 767.816 128.696 767.816C137.411 767.816 144.921 769.593 151.228 773.148C157.649 776.588 160.86 781.863 160.86 788.972C160.86 794.132 159.197 798.547 155.872 802.216C152.547 805.771 148.361 807.548 143.316 807.548C141.94 807.548 140.392 807.376 138.672 807.032ZM261.742 829.392C261.742 815.747 258.933 804.739 253.314 796.368C247.81 787.883 239.153 783.64 227.342 783.64C220.233 783.64 213.926 785.933 208.422 790.52C205.326 795.336 202.861 801.815 201.026 809.956C199.306 818.097 198.446 825.837 198.446 833.176C198.446 846.707 201.198 857.543 206.702 865.684C212.206 873.825 220.921 877.896 232.846 877.896C239.382 877.896 244.943 875.259 249.53 869.984C257.671 860.467 261.742 846.936 261.742 829.392ZM226.998 894.064C210.257 894.064 197.529 888.56 188.814 877.552C180.099 866.429 175.742 851.924 175.742 834.036C175.742 816.033 181.131 800.496 191.91 787.424C202.689 774.352 216.391 767.816 233.018 767.816C249.759 767.816 262.487 773.435 271.202 784.672C280.031 795.909 284.446 810.529 284.446 828.532C284.446 846.535 279.057 861.957 268.278 874.8C257.499 887.643 243.739 894.064 226.998 894.064ZM326.652 783.812C326.652 792.412 325.792 803.764 324.072 817.868C322.467 831.972 321.664 842.865 321.664 850.548C321.664 858.231 323.728 864.652 327.856 869.812C331.984 874.857 338.119 877.38 346.26 877.38C349.585 877.38 353.599 876.577 358.3 874.972C363.001 873.367 366.728 871.303 369.48 868.78C370.971 856.052 371.716 839.712 371.716 819.76C371.716 799.693 370.283 783.411 367.416 770.912C371.085 769.536 374.984 768.848 379.112 768.848C383.24 768.848 386.795 770.167 389.776 772.804C392.872 775.441 394.42 778.881 394.42 783.124C394.42 787.367 393.904 794.648 392.872 804.968C391.955 815.288 391.496 826.869 391.496 839.712C391.496 852.44 392.069 863.677 393.216 873.424C376.475 887.184 359.504 894.064 342.304 894.064C329.232 894.064 319.027 890.739 311.688 884.088C304.464 877.323 300.852 867.576 300.852 854.848C300.852 850.835 301.196 843.611 301.884 833.176C302.687 822.627 303.088 814.944 303.088 810.128C303.088 792.813 301.941 780.085 299.648 771.944C303.317 770.568 307.216 769.88 311.344 769.88C315.472 769.88 319.027 771.199 322.008 773.836C325.104 776.473 326.652 779.799 326.652 783.812ZM485.419 771.6C489.088 769.765 492.929 768.848 496.943 768.848C501.071 768.848 504.396 770.109 506.919 772.632C509.556 775.155 510.875 778.193 510.875 781.748C510.875 785.303 510.359 793.157 509.327 805.312C508.295 817.352 507.779 826.927 507.779 834.036C507.779 856.855 508.811 875.832 510.875 890.968C507.205 892.344 503.077 893.032 498.491 893.032C494.019 893.032 490.521 892.287 487.999 890.796C480.66 886.553 463.517 859.721 436.571 810.3C436.112 814.772 435.883 825.264 435.883 841.776C435.883 858.173 437.144 874.227 439.667 889.936C436.112 891.312 432.271 892 428.143 892C424.015 892 420.632 890.681 417.995 888.044C415.472 885.407 414.211 882.253 414.211 878.584C414.211 874.915 414.727 867.232 415.759 855.536C416.905 843.84 417.479 835.011 417.479 829.048C417.479 806.229 416.389 787.309 414.211 772.288C417.421 770.683 422.123 769.88 428.315 769.88C434.507 769.88 438.864 772.345 441.387 777.276C458.357 811.791 474.583 841.031 490.063 864.996C489.719 842.98 489.547 831.341 489.547 830.08C489.547 808.637 488.171 789.144 485.419 771.6ZM528.765 884.26C532.32 867.175 534.097 849.459 534.097 831.112C534.097 812.765 532.664 794.189 529.797 775.384C545.392 771.027 559.209 768.848 571.249 768.848C589.137 768.848 602.725 773.549 612.013 782.952C621.416 792.24 626.117 806.401 626.117 825.436C626.117 844.471 620.785 860.524 610.121 873.596C599.572 886.553 584.895 893.032 566.089 893.032C553.247 893.032 540.805 890.108 528.765 884.26ZM555.425 786.22C554.393 800.209 553.877 813.797 553.877 826.984C553.877 840.056 554.508 855.88 555.769 874.456C560.471 876.061 565.745 876.864 571.593 876.864C577.441 876.864 582.487 875.545 586.729 872.908C591.087 870.156 594.412 866.429 596.705 861.728C601.177 852.784 603.413 841.833 603.413 828.876C603.413 816.377 601.005 806.057 596.189 797.916C590.915 788.743 582.716 784.156 571.593 784.156C565.516 784.156 560.127 784.844 555.425 786.22ZM771.023 829.392C771.023 815.747 768.214 804.739 762.595 796.368C757.091 787.883 748.434 783.64 736.623 783.64C729.514 783.64 723.207 785.933 717.703 790.52C714.607 795.336 712.142 801.815 710.307 809.956C708.587 818.097 707.727 825.837 707.727 833.176C707.727 846.707 710.479 857.543 715.983 865.684C721.487 873.825 730.202 877.896 742.127 877.896C748.663 877.896 754.225 875.259 758.811 869.984C766.953 860.467 771.023 846.936 771.023 829.392ZM736.279 894.064C719.538 894.064 706.81 888.56 698.095 877.552C689.381 866.429 685.023 851.924 685.023 834.036C685.023 816.033 690.413 800.496 701.191 787.424C711.97 774.352 725.673 767.816 742.299 767.816C759.041 767.816 771.769 773.435 780.483 784.672C789.313 795.909 793.727 810.529 793.727 828.532C793.727 846.535 788.338 861.957 777.559 874.8C766.781 887.643 753.021 894.064 736.279 894.064ZM832.837 836.96C832.837 859.091 834.041 876.749 836.449 889.936C832.78 891.312 828.881 892 824.753 892C820.625 892 817.013 890.681 813.917 888.044C810.936 885.407 809.445 881.795 809.445 877.208C809.445 872.507 810.018 863.677 811.165 850.72C812.312 837.763 812.885 827.729 812.885 820.62C812.885 803.076 811.681 786.163 809.273 769.88C817.758 770.568 829.168 770.912 843.501 770.912C857.834 770.912 871.537 769.88 884.609 767.816C885.985 770.339 886.673 773.377 886.673 776.932C886.673 780.372 885.297 783.468 882.545 786.22C879.908 788.857 876.582 790.176 872.569 790.176C868.67 790.176 862.364 789.603 853.649 788.456C845.049 787.309 838.685 786.736 834.557 786.736C833.64 799.235 833.066 810.701 832.837 821.136C839.488 821.824 846.826 822.168 854.853 822.168C862.994 822.168 870.046 820.964 876.009 818.556C877.385 821.079 878.073 824.117 878.073 827.672C878.073 831.112 876.697 834.265 873.945 837.132C871.308 839.884 868.154 841.26 864.485 841.26C860.816 841.26 855.541 840.572 848.661 839.196C841.781 837.705 836.506 836.96 832.837 836.96ZM1002.71 833.52C1007.87 844.413 1014.4 853.931 1022.32 862.072C1030.23 870.213 1038.08 875.488 1045.88 877.896C1045.88 882.712 1044.62 886.439 1042.1 889.076C1039.57 891.713 1035.96 893.032 1031.26 893.032C1025.18 893.032 1018.24 889.133 1010.45 881.336C1002.65 873.424 995.827 864.136 989.979 853.472C984.246 842.693 980.863 833.233 979.831 825.092C988.087 825.092 994.853 822.913 1000.13 818.556C1005.52 814.084 1008.21 807.777 1008.21 799.636C1008.21 789.316 1001.79 784.156 988.947 784.156C984.819 784.156 979.774 784.844 973.811 786.22C973.009 801.7 972.607 814.199 972.607 823.716C972.607 854.217 973.811 876.291 976.219 889.936C972.55 891.312 968.651 892 964.523 892C960.395 892 956.783 890.681 953.687 888.044C950.706 885.407 949.215 881.909 949.215 877.552C949.215 873.195 949.789 865.627 950.935 854.848C952.082 843.955 952.655 835.24 952.655 828.704C952.655 808.637 951.222 790.807 948.355 775.212C963.835 770.969 978.57 768.848 992.559 768.848C1018.13 768.848 1030.92 777.964 1030.92 796.196C1030.92 804.223 1028.16 811.791 1022.66 818.9C1017.27 825.895 1010.62 830.768 1002.71 833.52ZM1086.07 771.256C1090.89 769.651 1095.25 768.848 1099.15 768.848C1105.11 768.848 1109.75 770.969 1113.08 775.212C1116.4 779.34 1118.98 785.245 1120.82 792.928C1121.39 795.221 1122.54 800.267 1124.26 808.064C1126.09 815.861 1127.58 822.168 1128.73 826.984C1132.29 842.005 1135.5 853.644 1138.36 861.9C1141.34 870.156 1146.05 876.749 1152.47 881.68C1151.09 885.12 1148.8 887.872 1145.59 889.936C1142.49 892 1139.11 893.032 1135.44 893.032C1127.07 893.032 1120.93 886.725 1117.03 874.112C1115.2 868.264 1113.54 862.531 1112.05 856.912C1108.03 858.288 1103.05 858.976 1097.08 858.976C1091.23 858.976 1084.01 858.345 1075.41 857.084C1071.86 870.959 1070.08 881.393 1070.08 888.388C1070.08 889.879 1070.14 890.968 1070.25 891.656C1068.76 891.885 1066.24 892 1062.68 892C1059.13 892 1055.97 890.911 1053.22 888.732C1050.59 886.439 1049.27 883.228 1049.27 879.1C1049.27 873.367 1054.77 856.568 1065.78 828.704C1076.79 800.84 1083.55 781.691 1086.07 771.256ZM1079.37 842.636C1083.95 843.209 1088.6 843.496 1093.3 843.496C1098.11 843.496 1103.22 842.98 1108.61 841.948C1107.57 837.247 1104.08 819.244 1098.11 787.94C1091.01 806.401 1084.76 824.633 1079.37 842.636ZM1190.86 889.936C1187.19 891.312 1183.3 892 1179.17 892C1175.04 892 1171.43 890.681 1168.33 888.044C1165.35 885.407 1163.86 881.795 1163.86 877.208C1163.86 872.621 1164.43 863.849 1165.58 850.892C1166.73 837.82 1167.3 827.385 1167.3 819.588C1167.3 799.521 1166.1 783.64 1163.69 771.944C1167.36 770.568 1171.26 769.88 1175.38 769.88C1179.51 769.88 1183.07 771.199 1186.05 773.836C1189.14 776.473 1190.69 780.085 1190.69 784.672C1190.69 789.259 1190.12 798.088 1188.97 811.16C1187.82 824.117 1187.25 834.495 1187.25 842.292C1187.25 862.359 1188.46 878.24 1190.86 889.936ZM1282.77 771.6C1286.44 769.765 1290.28 768.848 1294.29 768.848C1298.42 768.848 1301.74 770.109 1304.27 772.632C1306.9 775.155 1308.22 778.193 1308.22 781.748C1308.22 785.303 1307.71 793.157 1306.67 805.312C1305.64 817.352 1305.13 826.927 1305.13 834.036C1305.13 856.855 1306.16 875.832 1308.22 890.968C1304.55 892.344 1300.42 893.032 1295.84 893.032C1291.37 893.032 1287.87 892.287 1285.35 890.796C1278.01 886.553 1260.86 859.721 1233.92 810.3C1233.46 814.772 1233.23 825.264 1233.23 841.776C1233.23 858.173 1234.49 874.227 1237.01 889.936C1233.46 891.312 1229.62 892 1225.49 892C1221.36 892 1217.98 890.681 1215.34 888.044C1212.82 885.407 1211.56 882.253 1211.56 878.584C1211.56 874.915 1212.07 867.232 1213.11 855.536C1214.25 843.84 1214.83 835.011 1214.83 829.048C1214.83 806.229 1213.74 787.309 1211.56 772.288C1214.77 770.683 1219.47 769.88 1225.66 769.88C1231.85 769.88 1236.21 772.345 1238.73 777.276C1255.7 811.791 1271.93 841.031 1287.41 864.996C1287.07 842.98 1286.89 831.341 1286.89 830.08C1286.89 808.637 1285.52 789.144 1282.77 771.6Z" fill="#F2F2F2"/>
<defs>
<linearGradient id="paint0_linear_167_878" x1="53" y1="328" x2="53.006" y2="334.24" gradientUnits="userSpaceOnUse">
<stop stop-opacity="0.0537"/>
<stop offset="0.416667" stop-opacity="0.0289"/>
<stop offset="0.494792" stop-opacity="0.0289"/>
<stop offset="1" stop-opacity="0.0537"/>
</linearGradient>
</defs>
</svg>
